{
  "accessors": [
    {
      "bufferView": 2,
      "componentType": 5126,
      "count": 18164,
      "max": [
        0.6491730809211731,
        2.263277053833008,
        0.6852050423622131
      ],
      "min": [
        -0.3619302213191986,
        -0.008201658725738525,
        -0.5999817848205566
      ],
      "type": "VEC3"
    },
    {
      "bufferView": 2,
      "byteOffset": 217968,
      "componentType": 5126,
      "count": 18164,
      "max": [
        0.9999956488609314,
        1.0,
        1.0
      ],
      "min": [
        -0.9999723434448242,
        -1.0,
        -1.0
      ],
      "type": "VEC3"
    },
    {
      "bufferView": 3,
      "componentType": 5126,
      "count": 18164,
      "max": [
        1.0,
        1.0,
        1.0,
        1.0
      ],
      "min": [
        -1.0,
        -1.0,
        -1.0,
        -1.0
      ],
      "type": "VEC4"
    },
    {
      "bufferView": 1,
      "componentType": 5126,
      "count": 18164,
      "max": [
        0.9951950907707214,
        0.99609375
      ],
      "min": [
        0.00390625,
        0.00390625
      ],
      "type": "VEC2"
    },
    {
      "bufferView": 1,
      "byteOffset": 145312,
      "componentType": 5126,
      "count": 18164,
      "max": [
        63.96015167236328,
        1.0
      ],
      "min": [
        -22.48296356201172,
        -173.61061096191406
      ],
      "type": "VEC2"
    },
    {
      "bufferView": 1,
      "byteOffset": 290624,
      "componentType": 5126,
      "count": 18164,
      "max": [
        0.9951950907707214,
        0.99609375
      ],
      "min": [
        0.00390625,
        0.00390625
      ],
      "type": "VEC2"
    },
    {
      "bufferView": 1,
      "byteOffset": 435936,
      "componentType": 5126,
      "count": 18164,
      "max": [
        0.9951950907707214,
        0.99609375
      ],
      "min": [
        0.00390625,
        0.00390625
      ],
      "type": "VEC2"
    },
    {
      "bufferView": 1,
      "byteOffset": 581248,
      "componentType": 5126,
      "count": 18164,
      "max": [
        0.9951950907707214,
        0.99609375
      ],
      "min": [
        0.00390625,
        0.00390625
      ],
      "type": "VEC2"
    },
    {
      "bufferView": 1,
      "byteOffset": 726560,
      "componentType": 5126,
      "count": 18164,
      "max": [
        0.9951950907707214,
        0.99609375
      ],
      "min": [
        0.00390625,
        0.00390625
      ],
      "type": "VEC2"
    },
    {
      "bufferView": 0,
      "componentType": 5125,
      "count": 63318,
      "type": "SCALAR"
    }
  ],
  "asset": {
    "extras": {
      "author": "efforya (https://sketchfab.com/efforya)",
      "license": "CC-BY-4.0 (http://creativecommons.org/licenses/by/4.0/)",
      "source": "https://sketchfab.com/3d-models/medical-android-c856a602428944a98f222c83658222a4",
      "title": "Medical Android"
    },
    "generator": "Sketchfab-15.5.0",
    "version": "2.0"
  },
  "bufferViews": [
    {
      "buffer": 0,
      "byteLength": 253272,
      "name": "floatBufferViews",
      "target": 34963
    },
    {
      "buffer": 0,
      "byteLength": 871872,
      "byteOffset": 253272,
      "byteStride": 8,
      "name": "floatBufferViews",
      "target": 34962
    },
    {
      "buffer": 0,
      "byteLength": 435936,
      "byteOffset": 1125144,
      "byteStride": 12,
      "name": "floatBufferViews",
      "target": 34962
    },
    {
      "buffer": 0,
      "byteLength": 290624,
      "byteOffset": 1561080,
      "byteStride": 16,
      "name": "floatBufferViews",
      "target": 34962
    }
  ],
  "buffers": [
    {
      "byteLength": 1851704,
      "uri": "scene.bin"
    }
  ],
  "images": [
    {
      "uri": "textures/medbot.003_baseColor.png"
    },
    {
      "uri": "textures/medbot.003_metallicRoughness.png"
    },
    {
      "uri": "textures/medbot.003_emissive.png"
    },
    {
      "uri": "textures/medbot.003_normal.png"
    }
  ],
  "materials": [
    {
      "doubleSided": true,
      "emissiveFactor": [
        1.0,
        1.0,
        1.0
      ],
      "emissiveTexture": {
        "index": 2
      },
      "name": "medbot.003",
      "normalTexture": {
        "index": 3
      },
      "pbrMetallicRoughness": {
        "baseColorTexture": {
          "index": 0
        },
        "metallicRoughnessTexture": {
          "index": 1
        }
      }
    }
  ],
  "meshes": [
    {
      "name": "Object_0",
      "primitives": [
        {
          "attributes": {
            "NORMAL": 1,
            "POSITION": 0,
            "TANGENT": 2,
            "TEXCOORD_0": 3,
            "TEXCOORD_1": 4,
            "TEXCOORD_2": 5,
            "TEXCOORD_3": 6,
            "TEXCOORD_4": 7,
            "TEXCOORD_5": 8
          },
          "indices": 9,
          "material": 0,
          "mode": 4
        }
      ]
    }
  ],
  "nodes": [
    {
      "children": [
        1
      ],
      "matrix": [
        1.0,
        0.0,
        0.0,
        0.0,
        0.0,
        2.220446049250313e-16,
        -1.0,
        0.0,
        0.0,
        1.0,
        2.220446049250313e-16,
        0.0,
        0.0,
        0.0,
        0.0,
        1.0
      ],
      "name": "Sketchfab_model"
    },
    {
      "children": [
        2
      ],
      "name": "root"
    },
    {
      "children": [
        3
      ],
      "matrix": [
        1.0,
        0.0,
        0.0,
        0.0,
        0.0,
        2.220446049250313e-16,
        1.0,
        0.0,
        0.0,
        -1.0,
        2.220446049250313e-16,
        0.0,
        0.0,
        0.0,
        0.0,
        1.0
      ],
      "name": "GLTF_SceneRootNode"
    },
    {
      "children": [
        4
      ],
      "matrix": [
        0.6834893703965346,
        0.0,
        -0.7299604650629709,
        0.0,
        0.0,
        1.0,
        0.0,
        0.0,
        0.7299604650629709,
        0.0,
        0.6834893703965346,
        0.0,
        0.0,
        0.0,
        0.0,
        1.0
      ],
      "name": "3_low.002_0"
    },
    {
      "mesh": 0,
      "name": "Object_4"
    }
  ],
  "samplers": [
    {
      "magFilter": 9729,
      "minFilter": 9987,
      "wrapS": 10497,
      "wrapT": 10497
    }
  ],
  "scene": 0,
  "scenes": [
    {
      "name": "Sketchfab_Scene",
      "nodes": [
        0
      ]
    }
  ],
  "textures": [
    {
      "sampler": 0,
      "source": 0
    },
    {
      "sampler": 0,
      "source": 1
    },
    {
      "sampler": 0,
      "source": 2
    },
    {
      "sampler": 0,
      "source": 3
    }
  ]
}
